HIERARCHY
ROOT ui
{
	 OFFSET 0 0 0
	 CHANNELS 3 XPosition YPosition Z Position
	 EndSite
	 {
	 OFFSET 0 -1 0
	 }
}
ROOT li
{
	 OFFSET 0 0 0
	 CHANNELS 3 XPosition YPosition Z Position
	 EndSite
	 {
	 OFFSET 0 -1 0
	 }
}
ROOT ul
{
	 OFFSET 0 0 0
	 CHANNELS 3 XPosition YPosition Z Position
	 EndSite
	 {
	 OFFSET 0 -1 0
	 }
}
ROOT ll
{
	 OFFSET 0 0 0
	 CHANNELS 3 XPosition YPosition Z Position
	 EndSite
	 {
	 OFFSET 0 -1 0
	 }
}
ROOT tt
{
	 OFFSET 0 0 0
	 CHANNELS 3 XPosition YPosition Z Position
	 EndSite
	 {
	 OFFSET 0 -1 0
	 }
}
ROOT tb
{
	 OFFSET 0 0 0
	 CHANNELS 3 XPosition YPosition Z Position
	 EndSite
	 {
	 OFFSET 0 -1 0
	 }
}
ROOT td
{
	 OFFSET 0 0 0
	 CHANNELS 3 XPosition YPosition Z Position
	 EndSite
	 {
	 OFFSET 0 -1 0
	 }
}
ROOT v
{
	 OFFSET 0 0 0
	 CHANNELS 3 XPosition YPosition Z Position
	 EndSite
	 {
	 OFFSET 0 -1 0
	 }
}
ROOT bn
{
	 OFFSET 0 0 0
	 CHANNELS 3 XPosition YPosition Z Position
	 EndSite
	 {
	 OFFSET 0 -1 0
	 }
}
MOTION
Frames: 10
Frame Time: 0.002
0.0069239850044250486	-0.0034903249740600587	0		0.5358121337890625	-2.481204833984375	0		-0.8952643432617188	0.26175140380859374	0		-0.621136962890625	-2.75921533203125	0		1.483216552734375	-0.6897099609375	0		3.18231201171875	-0.8264563598632813	0		4.43996142578125	-0.5967572021484375	0		5.94852587890625	0.3524533386230469	0		-0.26030517578125	5.89649755859375	0		
-0.017008914947509765	1.3918999582529068E-5	0		0.518858154296875	-2.484742919921875	0		-0.9621646728515625	0.27054226684570315	0		-0.6570253295898437	-2.75363525390625	0		1.4492637939453126	-0.6901203002929688	0		3.168332763671875	-0.83098583984375	0		4.45301171875	-0.59646142578125	0		5.94668505859375	0.36987109375	0		-0.2472420349121094	5.9087431640625	0		
0.009030046463012696	1.663530021905899E-4	0		0.5629508056640625	-2.481707275390625	0		-0.892157958984375	0.2663790283203125	0		-0.6219701538085938	-2.756553466796875	0		1.4962564697265626	-0.6980925903320313	0		3.206506591796875	-0.8128735961914062	0		4.46200927734375	-0.6031341552734375	0		5.95066455078125	0.36225558471679686	0		-0.2623643798828125	5.89717529296875	0		
-0.022937387466430665	-0.0022909131050109863	0		0.5040508422851563	-2.479970458984375	0		-0.8981370849609375	0.2627288818359375	0		-0.6338118896484375	-2.747158447265625	0		1.4922994384765624	-0.7007186279296875	0		3.198558349609375	-0.814445068359375	0		4.454130859375	-0.593689208984375	0		5.94971142578125	0.362679443359375	0		-0.27747378540039064	5.88759716796875	0		
0.056138942718505856	-0.003521034002304077	0		0.5650698852539062	-2.496067138671875	0		-0.8990568237304688	0.26303103637695313	0		-0.6617310791015625	-2.754666259765625	0		1.488369873046875	-0.7043523559570313	0		3.191713134765625	-0.8060274658203125	0		4.4501826171875	-0.5992725830078125	0		5.9397900390625	0.3631678466796875	0		-0.26442767333984374	5.897814453125	0		
-0.02471624183654785	-0.001667314052581787	0		0.51131298828125	-2.4873876953125	0		-0.9759244384765625	0.2638378601074219	0		-0.6564976806640626	-2.748414794921875	0		1.4574527587890624	-0.7138106079101563	0		3.205831298828125	-0.8107583618164063	0		4.45640966796875	-0.5869276123046875	0		5.94791162109375	0.3625341796875	0		-0.2473583221435547	5.90599169921875	0		
0.058497631072998046	5.268500000238419E-5	0		0.541584716796875	-2.48529443359375	0		-0.8866486206054688	0.2754950866699219	0		-0.6481650390625	-2.73819873046875	0		1.47363671875	-0.7186004638671875	0		3.20926953125	-0.7784207153320313	0		4.46268310546875	-0.5775858764648437	0		5.95610498046875	0.3629010009765625	0		-0.2653515930175781	5.89739453125	0		
-0.022214513778686523	0.0018755910396575928	0		0.5119265441894532	-2.4848056640625	0		-0.8973760375976563	0.2758195495605469	0		-0.65774951171875	-2.727875244140625	0		1.505844970703125	-0.7315086059570313	0		3.175508056640625	-0.7868379516601562	0		4.4560068359375	-0.5721603393554687	0		5.94638232421875	0.36438919067382813	0		-0.24724690246582032	5.8935380859375	0		
0.05713976669311523	5.986949801445007E-4	0		0.562287353515625	-2.4948720703125	0		-0.9030407104492187	0.27309365844726563	0		-0.6682456665039063	-2.717561279296875	0		1.472140380859375	-0.7439806518554688	0		3.1979521484375	-0.7776441650390625	0		4.45536083984375	-0.5747818603515625	0		5.9457353515625	0.3648128662109375	0		-0.2820749816894531	5.889025390625	0		
-0.057441974639892576	-0.003383131980895996	0		0.5348281860351562	-2.491425048828125	0		-0.9076259155273437	0.2693443298339844	0		-0.6667058715820312	-2.715344482421875	0		1.5045225830078126	-0.7569114379882812	0		3.196464111328125	-0.771297607421875	0		4.45479541015625	-0.578411865234375	0		5.9402353515625	0.3742641296386719	0		-0.2827925720214844	5.8892666015625	0		
